<svg width="657.78359375px" height="121.89877929687499px" xmlns="http://www.w3.org/2000/svg" viewBox="-78.89179687500001 14.050610351562504 657.78359375 121.89877929687499" style="background:rgb(29,181,147)" preserveAspectRatio="xMidYMid"><defs><linearGradient id="editing-shadow-gradient1" x1="0" x2="0" y1="0" y2="1"><stop offset="0" stop-color="#000000" stop-opacity="0"></stop><stop offset="0.2" stop-color="#000000" stop-opacity="0"></stop><stop offset="1" stop-color="#000000" stop-opacity="1"></stop></linearGradient><linearGradient id="editing-shadow-gradient2" x1="-0.2547095802227721" x2="1.2547095802227721" y1="-0.15605902899050716" y2="1.1560590289905073"><stop offset="0" stop-color="#ffffff"></stop><stop offset="1" stop-color="#fec918"></stop></linearGradient><filter id="editing-shadow" x="-100%" y="-100%" width="300%" height="300%"><feGaussianBlur stdDeviation="2"></feGaussianBlur><feComposite operator="in" in2="SourceGraphic"></feComposite><feGaussianBlur stdDeviation="1"></feGaussianBlur></filter></defs><g transform="translate(250,75)"><g transform="translate(-20.4, -1.2)"><g transform="skewX(45)"><g filter="url(#editing-shadow)"><g transform="translate(-196.73192873597145, 28.06500244140625)"><path d="M24.96-4.80L24.96-4.80L24.96-4.80Q24.96-9.28 26.75-18.24L26.75-18.24L17.28-18.24L13.76 0L0.38 0L8.51-42.24L22.02-42.24L18.30-23.36L27.78-23.36L31.30-42.24L44.80-42.24L44.80-42.24Q43.90-37.50 42.75-32.19L42.75-32.19L40.58-21.76L40.58-21.76Q38.14-9.60 38.14-4.29L38.14-4.29L38.14-4.29Q38.14-2.11 38.85-0.90L38.85-0.90L38.85-0.90Q35.65 1.28 31.90 1.28L31.90 1.28L31.90 1.28Q28.16 1.28 26.56-0.51L26.56-0.51L26.56-0.51Q24.96-2.30 24.96-4.80ZM60.29 1.28L60.29 1.28L60.29 1.28Q46.21 1.28 46.21-11.97L46.21-11.97L46.21-11.97Q46.21-21.38 51.39-27.46L51.39-27.46L51.39-27.46Q56.90-33.92 66.43-33.92L66.43-33.92L66.43-33.92Q73.34-33.92 76.86-30.72L76.86-30.72L76.86-30.72Q80.38-27.52 80.38-20.80L80.38-20.80L80.38-20.80Q80.38-10.56 74.88-4.61L74.88-4.61L74.88-4.61Q69.50 1.28 60.29 1.28ZM61.95-26.56L61.95-26.56L61.95-26.56Q61.18-24.83 60.58-22.24L60.58-22.24L60.58-22.24Q59.97-19.65 59.20-15.55L59.20-15.55L59.20-15.55Q58.43-11.46 58.43-6.40L58.43-6.40L58.43-6.40Q58.43-4.74 58.98-3.65L58.98-3.65L58.98-3.65Q59.52-2.56 60.99-2.56L60.99-2.56L60.99-2.56Q62.46-2.56 63.39-3.26L63.39-3.26L63.39-3.26Q64.32-3.97 65.02-5.63L65.02-5.63L65.02-5.63Q66.30-8.58 67.33-14.05L67.33-14.05L67.33-14.05Q68.35-19.52 68.45-21.89L68.45-21.89L68.45-21.89Q68.54-24.26 68.54-26.02L68.54-26.02L68.54-26.02Q68.54-27.78 68.03-28.93L68.03-28.93L68.03-28.93Q67.52-30.08 66.08-30.08L66.08-30.08L66.08-30.08Q64.64-30.08 63.68-29.18L63.68-29.18L63.68-29.18Q62.72-28.29 61.95-26.56ZM130.24 1.28L130.24 1.28L130.24 1.28Q122.50 1.28 122.50-4.74L122.50-4.74L122.50-4.74Q122.50-7.36 123.62-12.45L123.62-12.45L123.62-12.45Q124.74-17.54 125.12-19.58L125.12-19.58L125.12-19.58Q126.02-24.26 126.02-25.73L126.02-25.73L126.02-25.73Q126.02-28.99 123.58-28.99L123.58-28.99L123.58-28.99Q121.98-28.99 120.45-26.78L120.45-26.78L120.45-26.78Q118.91-24.58 118.21-20.16L118.21-20.16L114.24 0L101.76 1.28L105.22-16.13L105.22-16.13Q105.79-19.01 106.30-22.27L106.30-22.27L106.30-22.27Q106.82-25.54 106.82-26.05L106.82-26.05L106.82-26.05Q106.82-28.99 104.64-28.99L104.64-28.99L104.64-28.99Q103.17-28.99 101.57-26.82L101.57-26.82L101.57-26.82Q99.97-24.64 99.07-20.16L99.07-20.16L95.17 0L82.56 1.28L89.28-32.64L99.71-33.92L98.62-27.46L98.62-27.46Q100.29-30.91 103.36-32.42L103.36-32.42L103.36-32.42Q106.43-33.92 111.23-33.92L111.23-33.92L111.23-33.92Q113.98-33.92 115.78-32.58L115.78-32.58L115.78-32.58Q117.57-31.23 118.14-29.06L118.14-29.06L118.14-29.06Q119.23-31.30 122.02-32.61L122.02-32.61L122.02-32.61Q124.80-33.92 128.22-33.92L128.22-33.92L128.22-33.92Q131.65-33.92 133.34-33.18L133.34-33.18L133.34-33.18Q135.04-32.45 136.06-31.23L136.06-31.23L136.06-31.23Q137.79-28.99 137.79-24.90L137.79-24.90L137.79-24.90Q137.79-20.86 136.06-12.48L136.06-12.48L136.06-12.48Q135.17-8.38 135.17-6.88L135.17-6.88L135.17-6.88Q135.17-5.38 136.03-4.48L136.03-4.48L136.03-4.48Q136.90-3.58 138.18-3.46L138.18-3.46L138.18-3.46Q137.54-1.28 135.33 0L135.33 0L135.33 0Q133.12 1.28 130.24 1.28ZM169.02-10.82L169.02-10.82L169.02-10.82Q170.62-9.73 170.62-7.33L170.62-7.33L170.62-7.33Q170.62-4.93 169.41-3.39L169.41-3.39L169.41-3.39Q168.19-1.86 166.21-0.83L166.21-0.83L166.21-0.83Q162.11 1.28 157.70 1.28L157.70 1.28L157.70 1.28Q153.28 1.28 150.69 0.32L150.69 0.32L150.69 0.32Q148.10-0.64 146.37-2.43L146.37-2.43L146.37-2.43Q142.98-5.82 142.98-12.03L142.98-12.03L142.98-12.03Q142.98-21.70 148.22-27.58L148.22-27.58L148.22-27.58Q153.86-33.92 163.65-33.92L163.65-33.92L163.65-33.92Q169.73-33.92 172.74-31.36L172.74-31.36L172.74-31.36Q174.98-29.44 174.98-26.30L174.98-26.30L174.98-26.30Q174.98-15.04 155.52-15.04L155.52-15.04L155.52-15.04Q155.26-13.38 155.26-11.97L155.26-11.97L155.26-11.97Q155.26-9.02 156.58-7.90L156.58-7.90L156.58-7.90Q157.89-6.78 160.32-6.78L160.32-6.78L160.32-6.78Q162.75-6.78 165.34-7.90L165.34-7.90L165.34-7.90Q167.94-9.02 169.02-10.82ZM155.97-17.79L155.97-17.79L155.97-17.79Q160.51-17.79 163.14-20.61L163.14-20.61L163.14-20.61Q165.76-23.30 165.76-27.58L165.76-27.58L165.76-27.58Q165.76-29.06 165.22-29.86L165.22-29.86L165.22-29.86Q164.67-30.66 163.58-30.66L163.58-30.66L163.58-30.66Q162.50-30.66 161.57-30.24L161.57-30.24L161.57-30.24Q160.64-29.82 159.68-28.42L159.68-28.42L159.68-28.42Q157.31-25.22 155.97-17.79ZM190.21 0L176.58 0L183.87-38.91L184.58-42.24L198.27-42.24L190.21 0ZM216.19-3.78L216.19-3.78L216.19-3.78Q214.46 1.28 207.81 1.28L207.81 1.28L207.81 1.28Q202.88 1.28 199.49-4.61L199.49-4.61L199.49-4.61Q196.03-10.50 195.39-20.10L195.39-20.10L195.39-20.10Q202.43-32.96 207.30-38.27L207.30-38.27L207.30-38.27Q211.97-43.33 216.83-43.33L216.83-43.33L216.83-43.33Q219.46-43.33 221.34-41.92L221.34-41.92L221.34-41.92Q223.23-40.51 223.68-38.27L223.68-38.27L223.68-38.27Q221.50-37.38 220.48-36.67L220.48-36.67L220.48-36.67Q217.92-34.75 214.46-30.46L214.46-30.46L208.64-23.49L208.64-23.49Q207.23-21.82 206.66-21.06L206.66-21.06L206.66-21.06Q207.62-15.68 210.50-10.37L210.50-10.37L210.50-10.37Q213.25-5.31 216.19-3.78ZM245.76-10.82L245.76-10.82L245.76-10.82Q247.36-9.73 247.36-7.33L247.36-7.33L247.36-7.33Q247.36-4.93 246.14-3.39L246.14-3.39L246.14-3.39Q244.93-1.86 242.94-0.83L242.94-0.83L242.94-0.83Q238.85 1.28 234.43 1.28L234.43 1.28L234.43 1.28Q230.02 1.28 227.42 0.32L227.42 0.32L227.42 0.32Q224.83-0.64 223.10-2.43L223.10-2.43L223.10-2.43Q219.71-5.82 219.71-12.03L219.71-12.03L219.71-12.03Q219.71-21.70 224.96-27.58L224.96-27.58L224.96-27.58Q230.59-33.92 240.38-33.92L240.38-33.92L240.38-33.92Q246.46-33.92 249.47-31.36L249.47-31.36L249.47-31.36Q251.71-29.44 251.71-26.30L251.71-26.30L251.71-26.30Q251.71-15.04 232.26-15.04L232.26-15.04L232.26-15.04Q232.00-13.38 232.00-11.97L232.00-11.97L232.00-11.97Q232.00-9.02 233.31-7.90L233.31-7.90L233.31-7.90Q234.62-6.78 237.06-6.78L237.06-6.78L237.06-6.78Q239.49-6.78 242.08-7.90L242.08-7.90L242.08-7.90Q244.67-9.02 245.76-10.82ZM232.70-17.79L232.70-17.79L232.70-17.79Q237.25-17.79 239.87-20.61L239.87-20.61L239.87-20.61Q242.50-23.30 242.50-27.58L242.50-27.58L242.50-27.58Q242.50-29.06 241.95-29.86L241.95-29.86L241.95-29.86Q241.41-30.66 240.32-30.66L240.32-30.66L240.32-30.66Q239.23-30.66 238.30-30.24L238.30-30.24L238.30-30.24Q237.38-29.82 236.42-28.42L236.42-28.42L236.42-28.42Q234.05-25.22 232.70-17.79ZM279.81-10.82L279.81-10.82L279.81-10.82Q281.41-9.73 281.41-7.33L281.41-7.33L281.41-7.33Q281.41-4.93 280.19-3.39L280.19-3.39L280.19-3.39Q278.98-1.86 276.99-0.83L276.99-0.83L276.99-0.83Q272.90 1.28 268.48 1.28L268.48 1.28L268.48 1.28Q264.06 1.28 261.47 0.32L261.47 0.32L261.47 0.32Q258.88-0.64 257.15-2.43L257.15-2.43L257.15-2.43Q253.76-5.82 253.76-12.03L253.76-12.03L253.76-12.03Q253.76-21.70 259.01-27.58L259.01-27.58L259.01-27.58Q264.64-33.92 274.43-33.92L274.43-33.92L274.43-33.92Q280.51-33.92 283.52-31.36L283.52-31.36L283.52-31.36Q285.76-29.44 285.76-26.30L285.76-26.30L285.76-26.30Q285.76-15.04 266.30-15.04L266.30-15.04L266.30-15.04Q266.05-13.38 266.05-11.97L266.05-11.97L266.05-11.97Q266.05-9.02 267.36-7.90L267.36-7.90L267.36-7.90Q268.67-6.78 271.10-6.78L271.10-6.78L271.10-6.78Q273.54-6.78 276.13-7.90L276.13-7.90L276.13-7.90Q278.72-9.02 279.81-10.82ZM266.75-17.79L266.75-17.79L266.75-17.79Q271.30-17.79 273.92-20.61L273.92-20.61L273.92-20.61Q276.54-23.30 276.54-27.58L276.54-27.58L276.54-27.58Q276.54-29.06 276.00-29.86L276.00-29.86L276.00-29.86Q275.46-30.66 274.37-30.66L274.37-30.66L274.37-30.66Q273.28-30.66 272.35-30.24L272.35-30.24L272.35-30.24Q271.42-29.82 270.46-28.42L270.46-28.42L270.46-28.42Q268.10-25.22 266.75-17.79ZM317.76-4.38L317.76-4.38L317.76-4.38Q315.07-1.66 311.39-0.19L311.39-0.19L311.39-0.19Q307.71 1.28 304.06 1.28L304.06 1.28L304.06 1.28Q300.42 1.28 299.14 0.64L299.14 0.64L297.15 11.52L284.16 12.80L292.99-32.64L303.42-33.73L302.59-29.31L302.59-29.31Q305.28-33.86 310.85-33.86L310.85-33.86L310.85-33.86Q317.12-33.86 320.45-29.82L320.45-29.82L320.45-29.82Q323.39-26.18 323.39-20.61L323.39-20.61L323.39-20.61Q323.39-15.04 321.92-11.07L321.92-11.07L321.92-11.07Q320.45-7.10 317.76-4.38ZM303.30-22.34L299.90-3.58L299.90-3.58Q301.25-2.43 302.91-2.43L302.91-2.43L302.91-2.43Q304.58-2.43 305.54-3.07L305.54-3.07L305.54-3.07Q306.50-3.71 307.20-4.99L307.20-4.99L307.20-4.99Q309.12-8.45 310.66-18.94L310.66-18.94L310.66-18.94Q311.10-22.02 311.10-25.02L311.10-25.02L311.10-25.02Q311.10-28.03 310.43-28.99L310.43-28.99L310.43-28.99Q309.76-29.95 308.48-29.95L308.48-29.95L308.48-29.95Q304.58-29.95 303.30-22.34L303.30-22.34ZM353.15-10.82L353.15-10.82L353.15-10.82Q354.75-9.73 354.75-7.33L354.75-7.33L354.75-7.33Q354.75-4.93 353.54-3.39L353.54-3.39L353.54-3.39Q352.32-1.86 350.34-0.83L350.34-0.83L350.34-0.83Q346.24 1.28 341.82 1.28L341.82 1.28L341.82 1.28Q337.41 1.28 334.82 0.32L334.82 0.32L334.82 0.32Q332.22-0.64 330.50-2.43L330.50-2.43L330.50-2.43Q327.10-5.82 327.10-12.03L327.10-12.03L327.10-12.03Q327.10-21.70 332.35-27.58L332.35-27.58L332.35-27.58Q337.98-33.92 347.78-33.92L347.78-33.92L347.78-33.92Q353.86-33.92 356.86-31.36L356.86-31.36L356.86-31.36Q359.10-29.44 359.10-26.30L359.10-26.30L359.10-26.30Q359.10-15.04 339.65-15.04L339.65-15.04L339.65-15.04Q339.39-13.38 339.39-11.97L339.39-11.97L339.39-11.97Q339.39-9.02 340.70-7.90L340.70-7.90L340.70-7.90Q342.02-6.78 344.45-6.78L344.45-6.78L344.45-6.78Q346.88-6.78 349.47-7.90L349.47-7.90L349.47-7.90Q352.06-9.02 353.15-10.82ZM340.10-17.79L340.10-17.79L340.10-17.79Q344.64-17.79 347.26-20.61L347.26-20.61L347.26-20.61Q349.89-23.30 349.89-27.58L349.89-27.58L349.89-27.58Q349.89-29.06 349.34-29.86L349.34-29.86L349.34-29.86Q348.80-30.66 347.71-30.66L347.71-30.66L347.71-30.66Q346.62-30.66 345.70-30.24L345.70-30.24L345.70-30.24Q344.77-29.82 343.81-28.42L343.81-28.42L343.81-28.42Q341.44-25.22 340.10-17.79ZM381.31-17.98L381.31-17.98L381.31-17.98Q383.62-22.08 383.62-26.24L383.62-26.24L383.62-26.24Q383.62-28.99 381.63-28.99L381.63-28.99L381.63-28.99Q380.10-28.99 378.50-26.37L378.50-26.37L378.50-26.37Q376.83-23.74 376.32-20.35L376.32-20.35L372.99 0L359.74 1.28L366.27-32.64L376.83-33.92L375.68-27.46L375.68-27.46Q378.82-33.92 385.86-33.92L385.86-33.92L385.86-33.92Q389.57-33.92 391.58-32L391.58-32L391.58-32Q393.60-30.08 393.60-26.14L393.60-26.14L393.60-26.14Q393.60-22.21 391.01-19.71L391.01-19.71L391.01-19.71Q388.42-17.22 384.00-17.22L384.00-17.22L384.00-17.22Q382.08-17.22 381.31-17.98Z" fill="url(#editing-shadow-gradient1)"></path></g></g></g></g><g><g transform="translate(-196.66433230042458, 28.06500244140625)"><path d="M24.96-4.80L24.96-4.80L24.96-4.80Q24.96-9.28 26.75-18.24L26.75-18.24L17.28-18.24L13.76 0L0.38 0L8.51-42.24L22.02-42.24L18.30-23.36L27.78-23.36L31.30-42.24L44.80-42.24L44.80-42.24Q43.90-37.50 42.75-32.19L42.75-32.19L40.58-21.76L40.58-21.76Q38.14-9.60 38.14-4.29L38.14-4.29L38.14-4.29Q38.14-2.11 38.85-0.90L38.85-0.90L38.85-0.90Q35.65 1.28 31.90 1.28L31.90 1.28L31.90 1.28Q28.16 1.28 26.56-0.51L26.56-0.51L26.56-0.51Q24.96-2.30 24.96-4.80ZM60.29 1.28L60.29 1.28L60.29 1.28Q46.21 1.28 46.21-11.97L46.21-11.97L46.21-11.97Q46.21-21.38 51.39-27.46L51.39-27.46L51.39-27.46Q56.90-33.92 66.43-33.92L66.43-33.92L66.43-33.92Q73.34-33.92 76.86-30.72L76.86-30.72L76.86-30.72Q80.38-27.52 80.38-20.80L80.38-20.80L80.38-20.80Q80.38-10.56 74.88-4.61L74.88-4.61L74.88-4.61Q69.50 1.28 60.29 1.28ZM61.95-26.56L61.95-26.56L61.95-26.56Q61.18-24.83 60.58-22.24L60.58-22.24L60.58-22.24Q59.97-19.65 59.20-15.55L59.20-15.55L59.20-15.55Q58.43-11.46 58.43-6.40L58.43-6.40L58.43-6.40Q58.43-4.74 58.98-3.65L58.98-3.65L58.98-3.65Q59.52-2.56 60.99-2.56L60.99-2.56L60.99-2.56Q62.46-2.56 63.39-3.26L63.39-3.26L63.39-3.26Q64.32-3.97 65.02-5.63L65.02-5.63L65.02-5.63Q66.30-8.58 67.33-14.05L67.33-14.05L67.33-14.05Q68.35-19.52 68.45-21.89L68.45-21.89L68.45-21.89Q68.54-24.26 68.54-26.02L68.54-26.02L68.54-26.02Q68.54-27.78 68.03-28.93L68.03-28.93L68.03-28.93Q67.52-30.08 66.08-30.08L66.08-30.08L66.08-30.08Q64.64-30.08 63.68-29.18L63.68-29.18L63.68-29.18Q62.72-28.29 61.95-26.56ZM130.24 1.28L130.24 1.28L130.24 1.28Q122.50 1.28 122.50-4.74L122.50-4.74L122.50-4.74Q122.50-7.36 123.62-12.45L123.62-12.45L123.62-12.45Q124.74-17.54 125.12-19.58L125.12-19.58L125.12-19.58Q126.02-24.26 126.02-25.73L126.02-25.73L126.02-25.73Q126.02-28.99 123.58-28.99L123.58-28.99L123.58-28.99Q121.98-28.99 120.45-26.78L120.45-26.78L120.45-26.78Q118.91-24.58 118.21-20.16L118.21-20.16L114.24 0L101.76 1.28L105.22-16.13L105.22-16.13Q105.79-19.01 106.30-22.27L106.30-22.27L106.30-22.27Q106.82-25.54 106.82-26.05L106.82-26.05L106.82-26.05Q106.82-28.99 104.64-28.99L104.64-28.99L104.64-28.99Q103.17-28.99 101.57-26.82L101.57-26.82L101.57-26.82Q99.97-24.64 99.07-20.16L99.07-20.16L95.17 0L82.56 1.28L89.28-32.64L99.71-33.92L98.62-27.46L98.62-27.46Q100.29-30.91 103.36-32.42L103.36-32.42L103.36-32.42Q106.43-33.92 111.23-33.92L111.23-33.92L111.23-33.92Q113.98-33.92 115.78-32.58L115.78-32.58L115.78-32.58Q117.57-31.23 118.14-29.06L118.14-29.06L118.14-29.06Q119.23-31.30 122.02-32.61L122.02-32.61L122.02-32.61Q124.80-33.92 128.22-33.92L128.22-33.92L128.22-33.92Q131.65-33.92 133.34-33.18L133.34-33.18L133.34-33.18Q135.04-32.45 136.06-31.23L136.06-31.23L136.06-31.23Q137.79-28.99 137.79-24.90L137.79-24.90L137.79-24.90Q137.79-20.86 136.06-12.48L136.06-12.48L136.06-12.48Q135.17-8.38 135.17-6.88L135.17-6.88L135.17-6.88Q135.17-5.38 136.03-4.48L136.03-4.48L136.03-4.48Q136.90-3.58 138.18-3.46L138.18-3.46L138.18-3.46Q137.54-1.28 135.33 0L135.33 0L135.33 0Q133.12 1.28 130.24 1.28ZM169.02-10.82L169.02-10.82L169.02-10.82Q170.62-9.73 170.62-7.33L170.62-7.33L170.62-7.33Q170.62-4.93 169.41-3.39L169.41-3.39L169.41-3.39Q168.19-1.86 166.21-0.83L166.21-0.83L166.21-0.83Q162.11 1.28 157.70 1.28L157.70 1.28L157.70 1.28Q153.28 1.28 150.69 0.32L150.69 0.32L150.69 0.32Q148.10-0.64 146.37-2.43L146.37-2.43L146.37-2.43Q142.98-5.82 142.98-12.03L142.98-12.03L142.98-12.03Q142.98-21.70 148.22-27.58L148.22-27.58L148.22-27.58Q153.86-33.92 163.65-33.92L163.65-33.92L163.65-33.92Q169.73-33.92 172.74-31.36L172.74-31.36L172.74-31.36Q174.98-29.44 174.98-26.30L174.98-26.30L174.98-26.30Q174.98-15.04 155.52-15.04L155.52-15.04L155.52-15.04Q155.26-13.38 155.26-11.97L155.26-11.97L155.26-11.97Q155.26-9.02 156.58-7.90L156.58-7.90L156.58-7.90Q157.89-6.78 160.32-6.78L160.32-6.78L160.32-6.78Q162.75-6.78 165.34-7.90L165.34-7.90L165.34-7.90Q167.94-9.02 169.02-10.82ZM155.97-17.79L155.97-17.79L155.97-17.79Q160.51-17.79 163.14-20.61L163.14-20.61L163.14-20.61Q165.76-23.30 165.76-27.58L165.76-27.58L165.76-27.58Q165.76-29.06 165.22-29.86L165.22-29.86L165.22-29.86Q164.67-30.66 163.58-30.66L163.58-30.66L163.58-30.66Q162.50-30.66 161.57-30.24L161.57-30.24L161.57-30.24Q160.64-29.82 159.68-28.42L159.68-28.42L159.68-28.42Q157.31-25.22 155.97-17.79ZM190.21 0L176.58 0L183.87-38.91L184.58-42.24L198.27-42.24L190.21 0ZM216.19-3.78L216.19-3.78L216.19-3.78Q214.46 1.28 207.81 1.28L207.81 1.28L207.81 1.28Q202.88 1.28 199.49-4.61L199.49-4.61L199.49-4.61Q196.03-10.50 195.39-20.10L195.39-20.10L195.39-20.10Q202.43-32.96 207.30-38.27L207.30-38.27L207.30-38.27Q211.97-43.33 216.83-43.33L216.83-43.33L216.83-43.33Q219.46-43.33 221.34-41.92L221.34-41.92L221.34-41.92Q223.23-40.51 223.68-38.27L223.68-38.27L223.68-38.27Q221.50-37.38 220.48-36.67L220.48-36.67L220.48-36.67Q217.92-34.75 214.46-30.46L214.46-30.46L208.64-23.49L208.64-23.49Q207.23-21.82 206.66-21.06L206.66-21.06L206.66-21.06Q207.62-15.68 210.50-10.37L210.50-10.37L210.50-10.37Q213.25-5.31 216.19-3.78ZM245.76-10.82L245.76-10.82L245.76-10.82Q247.36-9.73 247.36-7.33L247.36-7.33L247.36-7.33Q247.36-4.93 246.14-3.39L246.14-3.39L246.14-3.39Q244.93-1.86 242.94-0.83L242.94-0.83L242.94-0.83Q238.85 1.28 234.43 1.28L234.43 1.28L234.43 1.28Q230.02 1.28 227.42 0.32L227.42 0.32L227.42 0.32Q224.83-0.64 223.10-2.43L223.10-2.43L223.10-2.43Q219.71-5.82 219.71-12.03L219.71-12.03L219.71-12.03Q219.71-21.70 224.96-27.58L224.96-27.58L224.96-27.58Q230.59-33.92 240.38-33.92L240.38-33.92L240.38-33.92Q246.46-33.92 249.47-31.36L249.47-31.36L249.47-31.36Q251.71-29.44 251.71-26.30L251.71-26.30L251.71-26.30Q251.71-15.04 232.26-15.04L232.26-15.04L232.26-15.04Q232.00-13.38 232.00-11.97L232.00-11.97L232.00-11.97Q232.00-9.02 233.31-7.90L233.31-7.90L233.31-7.90Q234.62-6.78 237.06-6.78L237.06-6.78L237.06-6.78Q239.49-6.78 242.08-7.90L242.08-7.90L242.08-7.90Q244.67-9.02 245.76-10.82ZM232.70-17.79L232.70-17.79L232.70-17.79Q237.25-17.79 239.87-20.61L239.87-20.61L239.87-20.61Q242.50-23.30 242.50-27.58L242.50-27.58L242.50-27.58Q242.50-29.06 241.95-29.86L241.95-29.86L241.95-29.86Q241.41-30.66 240.32-30.66L240.32-30.66L240.32-30.66Q239.23-30.66 238.30-30.24L238.30-30.24L238.30-30.24Q237.38-29.82 236.42-28.42L236.42-28.42L236.42-28.42Q234.05-25.22 232.70-17.79ZM279.81-10.82L279.81-10.82L279.81-10.82Q281.41-9.73 281.41-7.33L281.41-7.33L281.41-7.33Q281.41-4.93 280.19-3.39L280.19-3.39L280.19-3.39Q278.98-1.86 276.99-0.83L276.99-0.83L276.99-0.83Q272.90 1.28 268.48 1.28L268.48 1.28L268.48 1.28Q264.06 1.28 261.47 0.32L261.47 0.32L261.47 0.32Q258.88-0.64 257.15-2.43L257.15-2.43L257.15-2.43Q253.76-5.82 253.76-12.03L253.76-12.03L253.76-12.03Q253.76-21.70 259.01-27.58L259.01-27.58L259.01-27.58Q264.64-33.92 274.43-33.92L274.43-33.92L274.43-33.92Q280.51-33.92 283.52-31.36L283.52-31.36L283.52-31.36Q285.76-29.44 285.76-26.30L285.76-26.30L285.76-26.30Q285.76-15.04 266.30-15.04L266.30-15.04L266.30-15.04Q266.05-13.38 266.05-11.97L266.05-11.97L266.05-11.97Q266.05-9.02 267.36-7.90L267.36-7.90L267.36-7.90Q268.67-6.78 271.10-6.78L271.10-6.78L271.10-6.78Q273.54-6.78 276.13-7.90L276.13-7.90L276.13-7.90Q278.72-9.02 279.81-10.82ZM266.75-17.79L266.75-17.79L266.75-17.79Q271.30-17.79 273.92-20.61L273.92-20.61L273.92-20.61Q276.54-23.30 276.54-27.58L276.54-27.58L276.54-27.58Q276.54-29.06 276.00-29.86L276.00-29.86L276.00-29.86Q275.46-30.66 274.37-30.66L274.37-30.66L274.37-30.66Q273.28-30.66 272.35-30.24L272.35-30.24L272.35-30.24Q271.42-29.82 270.46-28.42L270.46-28.42L270.46-28.42Q268.10-25.22 266.75-17.79ZM317.76-4.38L317.76-4.38L317.76-4.38Q315.07-1.66 311.39-0.19L311.39-0.19L311.39-0.19Q307.71 1.28 304.06 1.28L304.06 1.28L304.06 1.28Q300.42 1.28 299.14 0.64L299.14 0.64L297.15 11.52L284.16 12.80L292.99-32.64L303.42-33.73L302.59-29.31L302.59-29.31Q305.28-33.86 310.85-33.86L310.85-33.86L310.85-33.86Q317.12-33.86 320.45-29.82L320.45-29.82L320.45-29.82Q323.39-26.18 323.39-20.61L323.39-20.61L323.39-20.61Q323.39-15.04 321.92-11.07L321.92-11.07L321.92-11.07Q320.45-7.10 317.76-4.38ZM303.30-22.34L299.90-3.58L299.90-3.58Q301.25-2.43 302.91-2.43L302.91-2.43L302.91-2.43Q304.58-2.43 305.54-3.07L305.54-3.07L305.54-3.07Q306.50-3.71 307.20-4.99L307.20-4.99L307.20-4.99Q309.12-8.45 310.66-18.94L310.66-18.94L310.66-18.94Q311.10-22.02 311.10-25.02L311.10-25.02L311.10-25.02Q311.10-28.03 310.43-28.99L310.43-28.99L310.43-28.99Q309.76-29.95 308.48-29.95L308.48-29.95L308.48-29.95Q304.58-29.95 303.30-22.34L303.30-22.34ZM353.15-10.82L353.15-10.82L353.15-10.82Q354.75-9.73 354.75-7.33L354.75-7.33L354.75-7.33Q354.75-4.93 353.54-3.39L353.54-3.39L353.54-3.39Q352.32-1.86 350.34-0.83L350.34-0.83L350.34-0.83Q346.24 1.28 341.82 1.28L341.82 1.28L341.82 1.28Q337.41 1.28 334.82 0.32L334.82 0.32L334.82 0.32Q332.22-0.64 330.50-2.43L330.50-2.43L330.50-2.43Q327.10-5.82 327.10-12.03L327.10-12.03L327.10-12.03Q327.10-21.70 332.35-27.58L332.35-27.58L332.35-27.58Q337.98-33.92 347.78-33.92L347.78-33.92L347.78-33.92Q353.86-33.92 356.86-31.36L356.86-31.36L356.86-31.36Q359.10-29.44 359.10-26.30L359.10-26.30L359.10-26.30Q359.10-15.04 339.65-15.04L339.65-15.04L339.65-15.04Q339.39-13.38 339.39-11.97L339.39-11.97L339.39-11.97Q339.39-9.02 340.70-7.90L340.70-7.90L340.70-7.90Q342.02-6.78 344.45-6.78L344.45-6.78L344.45-6.78Q346.88-6.78 349.47-7.90L349.47-7.90L349.47-7.90Q352.06-9.02 353.15-10.82ZM340.10-17.79L340.10-17.79L340.10-17.79Q344.64-17.79 347.26-20.61L347.26-20.61L347.26-20.61Q349.89-23.30 349.89-27.58L349.89-27.58L349.89-27.58Q349.89-29.06 349.34-29.86L349.34-29.86L349.34-29.86Q348.80-30.66 347.71-30.66L347.71-30.66L347.71-30.66Q346.62-30.66 345.70-30.24L345.70-30.24L345.70-30.24Q344.77-29.82 343.81-28.42L343.81-28.42L343.81-28.42Q341.44-25.22 340.10-17.79ZM381.31-17.98L381.31-17.98L381.31-17.98Q383.62-22.08 383.62-26.24L383.62-26.24L383.62-26.24Q383.62-28.99 381.63-28.99L381.63-28.99L381.63-28.99Q380.10-28.99 378.50-26.37L378.50-26.37L378.50-26.37Q376.83-23.74 376.32-20.35L376.32-20.35L372.99 0L359.74 1.28L366.27-32.64L376.83-33.92L375.68-27.46L375.68-27.46Q378.82-33.92 385.86-33.92L385.86-33.92L385.86-33.92Q389.57-33.92 391.58-32L391.58-32L391.58-32Q393.60-30.08 393.60-26.14L393.60-26.14L393.60-26.14Q393.60-22.21 391.01-19.71L391.01-19.71L391.01-19.71Q388.42-17.22 384.00-17.22L384.00-17.22L384.00-17.22Q382.08-17.22 381.31-17.98Z" fill="url(#editing-shadow-gradient2)"></path></g></g></g><style>text {
  font-size: 64px;
  font-family: Arial Black;
  dominant-baseline: central;
  text-anchor: middle;
}</style></svg>