<svg version="1.1" xmlns="http://www.w3.org/2000/svg" viewBox="0 0 750.1119008239834 750.1119008239834" width="750.1119008239834" height="750.1119008239834" filter="invert(93%) hue-rotate(180deg)"><!-- svg-source:excalidraw --><metadata></metadata><defs><style class="style-fonts">
      </style></defs><g stroke-linecap="round" transform="translate(10 10) rotate(0 365.0559504119917 365.0559504119917)"><path d="M730.11 365.06 C730.11 371.22, 729.96 377.39, 729.64 383.55 C729.33 389.7, 728.86 395.86, 728.24 401.99 C727.62 408.12, 726.84 414.24, 725.9 420.34 C724.97 426.43, 723.88 432.5, 722.64 438.54 C721.4 444.58, 720 450.59, 718.46 456.56 C716.91 462.52, 715.22 468.46, 713.37 474.34 C711.53 480.22, 709.53 486.06, 707.39 491.84 C705.25 497.62, 702.96 503.35, 700.53 509.02 C698.1 514.68, 695.52 520.29, 692.8 525.82 C690.09 531.36, 687.23 536.83, 684.24 542.22 C681.25 547.61, 678.12 552.93, 674.86 558.16 C671.6 563.39, 668.2 568.54, 664.68 573.6 C661.16 578.66, 657.51 583.64, 653.73 588.51 C649.96 593.38, 646.06 598.17, 642.05 602.84 C638.03 607.52, 633.89 612.1, 629.65 616.57 C625.4 621.03, 621.03 625.4, 616.57 629.65 C612.1 633.89, 607.52 638.03, 602.84 642.05 C598.17 646.06, 593.38 649.96, 588.51 653.73 C583.64 657.51, 578.66 661.16, 573.6 664.68 C568.54 668.2, 563.39 671.6, 558.16 674.86 C552.93 678.12, 547.61 681.25, 542.22 684.24 C536.83 687.23, 531.36 690.09, 525.82 692.8 C520.29 695.52, 514.68 698.1, 509.02 700.53 C503.35 702.96, 497.62 705.25, 491.84 707.39 C486.06 709.53, 480.22 711.53, 474.34 713.37 C468.46 715.22, 462.52 716.91, 456.56 718.46 C450.59 720, 444.58 721.4, 438.54 722.64 C432.5 723.88, 426.43 724.97, 420.34 725.9 C414.24 726.84, 408.12 727.62, 401.99 728.24 C395.86 728.86, 389.7 729.33, 383.55 729.64 C377.39 729.96, 371.22 730.11, 365.06 730.11 C358.89 730.11, 352.72 729.96, 346.57 729.64 C340.41 729.33, 334.26 728.86, 328.12 728.24 C321.99 727.62, 315.87 726.84, 309.78 725.9 C303.68 724.97, 297.61 723.88, 291.57 722.64 C285.53 721.4, 279.52 720, 273.55 718.46 C267.59 716.91, 261.65 715.22, 255.77 713.37 C249.89 711.53, 244.05 709.53, 238.27 707.39 C232.49 705.25, 226.76 702.96, 221.09 700.53 C215.43 698.1, 209.82 695.52, 204.29 692.8 C198.75 690.09, 193.28 687.23, 187.89 684.24 C182.5 681.25, 177.18 678.12, 171.95 674.86 C166.72 671.6, 161.57 668.2, 156.51 664.68 C151.45 661.16, 146.48 657.51, 141.6 653.73 C136.73 649.96, 131.94 646.06, 127.27 642.05 C122.59 638.03, 118.01 633.89, 113.54 629.65 C109.08 625.4, 104.71 621.03, 100.47 616.57 C96.22 612.1, 92.08 607.52, 88.07 602.84 C84.05 598.17, 80.15 593.38, 76.38 588.51 C72.61 583.64, 68.95 578.66, 65.43 573.6 C61.91 568.54, 58.51 563.39, 55.25 558.16 C51.99 552.93, 48.86 547.61, 45.87 542.22 C42.88 536.83, 40.02 531.36, 37.31 525.82 C34.59 520.29, 32.02 514.68, 29.58 509.02 C27.15 503.35, 24.86 497.62, 22.72 491.84 C20.58 486.06, 18.59 480.22, 16.74 474.34 C14.9 468.46, 13.2 462.52, 11.65 456.56 C10.11 450.59, 8.71 444.58, 7.47 438.54 C6.23 432.5, 5.14 426.43, 4.21 420.34 C3.28 414.24, 2.5 408.12, 1.87 401.99 C1.25 395.86, 0.78 389.7, 0.47 383.55 C0.16 377.39, 0 371.22, 0 365.06 C0 358.89, 0.16 352.72, 0.47 346.57 C0.78 340.41, 1.25 334.26, 1.87 328.12 C2.5 321.99, 3.28 315.87, 4.21 309.78 C5.14 303.68, 6.23 297.61, 7.47 291.57 C8.71 285.53, 10.11 279.52, 11.65 273.55 C13.2 267.59, 14.9 261.65, 16.74 255.77 C18.59 249.89, 20.58 244.05, 22.72 238.27 C24.86 232.49, 27.15 226.76, 29.58 221.09 C32.02 215.43, 34.59 209.82, 37.31 204.29 C40.02 198.75, 42.88 193.28, 45.87 187.89 C48.86 182.5, 51.99 177.18, 55.25 171.95 C58.51 166.72, 61.91 161.57, 65.43 156.51 C68.95 151.45, 72.61 146.48, 76.38 141.6 C80.15 136.73, 84.05 131.94, 88.07 127.27 C92.08 122.59, 96.22 118.01, 100.47 113.54 C104.71 109.08, 109.08 104.71, 113.54 100.47 C118.01 96.22, 122.59 92.08, 127.27 88.07 C131.94 84.05, 136.73 80.15, 141.6 76.38 C146.48 72.61, 151.45 68.95, 156.51 65.43 C161.57 61.91, 166.72 58.51, 171.95 55.25 C177.18 51.99, 182.5 48.86, 187.89 45.87 C193.28 42.88, 198.75 40.02, 204.29 37.31 C209.82 34.59, 215.43 32.02, 221.09 29.58 C226.76 27.15, 232.49 24.86, 238.27 22.72 C244.05 20.58, 249.89 18.59, 255.77 16.74 C261.65 14.9, 267.59 13.2, 273.55 11.65 C279.52 10.11, 285.53 8.71, 291.57 7.47 C297.61 6.23, 303.68 5.14, 309.78 4.21 C315.87 3.28, 321.99 2.5, 328.12 1.87 C334.26 1.25, 340.41 0.78, 346.57 0.47 C352.72 0.16, 358.89 0, 365.06 0 C371.22 0, 377.39 0.16, 383.55 0.47 C389.7 0.78, 395.86 1.25, 401.99 1.87 C408.12 2.5, 414.24 3.28, 420.34 4.21 C426.43 5.14, 432.5 6.23, 438.54 7.47 C444.58 8.71, 450.59 10.11, 456.56 11.65 C462.52 13.2, 468.46 14.9, 474.34 16.74 C480.22 18.59, 486.06 20.58, 491.84 22.72 C497.62 24.86, 503.35 27.15, 509.02 29.58 C514.68 32.02, 520.29 34.59, 525.82 37.31 C531.36 40.02, 536.83 42.88, 542.22 45.87 C547.61 48.86, 552.93 51.99, 558.16 55.25 C563.39 58.51, 568.54 61.91, 573.6 65.43 C578.66 68.95, 583.64 72.61, 588.51 76.38 C593.38 80.15, 598.17 84.05, 602.84 88.07 C607.52 92.08, 612.1 96.22, 616.57 100.47 C621.03 104.71, 625.4 109.08, 629.65 113.54 C633.89 118.01, 638.03 122.59, 642.05 127.27 C646.06 131.94, 649.96 136.73, 653.73 141.6 C657.51 146.48, 661.16 151.45, 664.68 156.51 C668.2 161.57, 671.6 166.72, 674.86 171.95 C678.12 177.18, 681.25 182.5, 684.24 187.89 C687.23 193.28, 690.09 198.75, 692.8 204.29 C695.52 209.82, 698.1 215.43, 700.53 221.09 C702.96 226.76, 705.25 232.49, 707.39 238.27 C709.53 244.05, 711.53 249.89, 713.37 255.77 C715.22 261.65, 716.91 267.59, 718.46 273.55 C720 279.52, 721.4 285.53, 722.64 291.57 C723.88 297.61, 724.97 303.68, 725.9 309.78 C726.84 315.87, 727.62 321.99, 728.24 328.12 C728.86 334.26, 729.33 340.41, 729.64 346.57 C729.96 352.72, 730.03 361.97, 730.11 365.06 C730.19 368.14, 730.19 361.97, 730.11 365.06" stroke="none" stroke-width="0" fill="#ffffff"></path><path d="M730.11 365.06 C730.11 371.22, 729.96 377.39, 729.64 383.55 C729.33 389.7, 728.86 395.86, 728.24 401.99 C727.62 408.12, 726.84 414.24, 725.9 420.34 C724.97 426.43, 723.88 432.5, 722.64 438.54 C721.4 444.58, 720 450.59, 718.46 456.56 C716.91 462.52, 715.22 468.46, 713.37 474.34 C711.53 480.22, 709.53 486.06, 707.39 491.84 C705.25 497.62, 702.96 503.35, 700.53 509.02 C698.1 514.68, 695.52 520.29, 692.8 525.82 C690.09 531.36, 687.23 536.83, 684.24 542.22 C681.25 547.61, 678.12 552.93, 674.86 558.16 C671.6 563.39, 668.2 568.54, 664.68 573.6 C661.16 578.66, 657.51 583.64, 653.73 588.51 C649.96 593.38, 646.06 598.17, 642.05 602.84 C638.03 607.52, 633.89 612.1, 629.65 616.57 C625.4 621.03, 621.03 625.4, 616.57 629.65 C612.1 633.89, 607.52 638.03, 602.84 642.05 C598.17 646.06, 593.38 649.96, 588.51 653.73 C583.64 657.51, 578.66 661.16, 573.6 664.68 C568.54 668.2, 563.39 671.6, 558.16 674.86 C552.93 678.12, 547.61 681.25, 542.22 684.24 C536.83 687.23, 531.36 690.09, 525.82 692.8 C520.29 695.52, 514.68 698.1, 509.02 700.53 C503.35 702.96, 497.62 705.25, 491.84 707.39 C486.06 709.53, 480.22 711.53, 474.34 713.37 C468.46 715.22, 462.52 716.91, 456.56 718.46 C450.59 720, 444.58 721.4, 438.54 722.64 C432.5 723.88, 426.43 724.97, 420.34 725.9 C414.24 726.84, 408.12 727.62, 401.99 728.24 C395.86 728.86, 389.7 729.33, 383.55 729.64 C377.39 729.96, 371.22 730.11, 365.06 730.11 C358.89 730.11, 352.72 729.96, 346.57 729.64 C340.41 729.33, 334.26 728.86, 328.12 728.24 C321.99 727.62, 315.87 726.84, 309.78 725.9 C303.68 724.97, 297.61 723.88, 291.57 722.64 C285.53 721.4, 279.52 720, 273.55 718.46 C267.59 716.91, 261.65 715.22, 255.77 713.37 C249.89 711.53, 244.05 709.53, 238.27 707.39 C232.49 705.25, 226.76 702.96, 221.09 700.53 C215.43 698.1, 209.82 695.52, 204.29 692.8 C198.75 690.09, 193.28 687.23, 187.89 684.24 C182.5 681.25, 177.18 678.12, 171.95 674.86 C166.72 671.6, 161.57 668.2, 156.51 664.68 C151.45 661.16, 146.48 657.51, 141.6 653.73 C136.73 649.96, 131.94 646.06, 127.27 642.05 C122.59 638.03, 118.01 633.89, 113.54 629.65 C109.08 625.4, 104.71 621.03, 100.47 616.57 C96.22 612.1, 92.08 607.52, 88.07 602.84 C84.05 598.17, 80.15 593.38, 76.38 588.51 C72.61 583.64, 68.95 578.66, 65.43 573.6 C61.91 568.54, 58.51 563.39, 55.25 558.16 C51.99 552.93, 48.86 547.61, 45.87 542.22 C42.88 536.83, 40.02 531.36, 37.31 525.82 C34.59 520.29, 32.02 514.68, 29.58 509.02 C27.15 503.35, 24.86 497.62, 22.72 491.84 C20.58 486.06, 18.59 480.22, 16.74 474.34 C14.9 468.46, 13.2 462.52, 11.65 456.56 C10.11 450.59, 8.71 444.58, 7.47 438.54 C6.23 432.5, 5.14 426.43, 4.21 420.34 C3.28 414.24, 2.5 408.12, 1.87 401.99 C1.25 395.86, 0.78 389.7, 0.47 383.55 C0.16 377.39, 0 371.22, 0 365.06 C0 358.89, 0.16 352.72, 0.47 346.57 C0.78 340.41, 1.25 334.26, 1.87 328.12 C2.5 321.99, 3.28 315.87, 4.21 309.78 C5.14 303.68, 6.23 297.61, 7.47 291.57 C8.71 285.53, 10.11 279.52, 11.65 273.55 C13.2 267.59, 14.9 261.65, 16.74 255.77 C18.59 249.89, 20.58 244.05, 22.72 238.27 C24.86 232.49, 27.15 226.76, 29.58 221.09 C32.02 215.43, 34.59 209.82, 37.31 204.29 C40.02 198.75, 42.88 193.28, 45.87 187.89 C48.86 182.5, 51.99 177.18, 55.25 171.95 C58.51 166.72, 61.91 161.57, 65.43 156.51 C68.95 151.45, 72.61 146.48, 76.38 141.6 C80.15 136.73, 84.05 131.94, 88.07 127.27 C92.08 122.59, 96.22 118.01, 100.47 113.54 C104.71 109.08, 109.08 104.71, 113.54 100.47 C118.01 96.22, 122.59 92.08, 127.27 88.07 C131.94 84.05, 136.73 80.15, 141.6 76.38 C146.48 72.61, 151.45 68.95, 156.51 65.43 C161.57 61.91, 166.72 58.51, 171.95 55.25 C177.18 51.99, 182.5 48.86, 187.89 45.87 C193.28 42.88, 198.75 40.02, 204.29 37.31 C209.82 34.59, 215.43 32.02, 221.09 29.58 C226.76 27.15, 232.49 24.86, 238.27 22.72 C244.05 20.58, 249.89 18.59, 255.77 16.74 C261.65 14.9, 267.59 13.2, 273.55 11.65 C279.52 10.11, 285.53 8.71, 291.57 7.47 C297.61 6.23, 303.68 5.14, 309.78 4.21 C315.87 3.28, 321.99 2.5, 328.12 1.87 C334.26 1.25, 340.41 0.78, 346.57 0.47 C352.72 0.16, 358.89 0, 365.06 0 C371.22 0, 377.39 0.16, 383.55 0.47 C389.7 0.78, 395.86 1.25, 401.99 1.87 C408.12 2.5, 414.24 3.28, 420.34 4.21 C426.43 5.14, 432.5 6.23, 438.54 7.47 C444.58 8.71, 450.59 10.11, 456.56 11.65 C462.52 13.2, 468.46 14.9, 474.34 16.74 C480.22 18.59, 486.06 20.58, 491.84 22.72 C497.62 24.86, 503.35 27.15, 509.02 29.58 C514.68 32.02, 520.29 34.59, 525.82 37.31 C531.36 40.02, 536.83 42.88, 542.22 45.87 C547.61 48.86, 552.93 51.99, 558.16 55.25 C563.39 58.51, 568.54 61.91, 573.6 65.43 C578.66 68.95, 583.64 72.61, 588.51 76.38 C593.38 80.15, 598.17 84.05, 602.84 88.07 C607.52 92.08, 612.1 96.22, 616.57 100.47 C621.03 104.71, 625.4 109.08, 629.65 113.54 C633.89 118.01, 638.03 122.59, 642.05 127.27 C646.06 131.94, 649.96 136.73, 653.73 141.6 C657.51 146.48, 661.16 151.45, 664.68 156.51 C668.2 161.57, 671.6 166.72, 674.86 171.95 C678.12 177.18, 681.25 182.5, 684.24 187.89 C687.23 193.28, 690.09 198.75, 692.8 204.29 C695.52 209.82, 698.1 215.43, 700.53 221.09 C702.96 226.76, 705.25 232.49, 707.39 238.27 C709.53 244.05, 711.53 249.89, 713.37 255.77 C715.22 261.65, 716.91 267.59, 718.46 273.55 C720 279.52, 721.4 285.53, 722.64 291.57 C723.88 297.61, 724.97 303.68, 725.9 309.78 C726.84 315.87, 727.62 321.99, 728.24 328.12 C728.86 334.26, 729.33 340.41, 729.64 346.57 C729.96 352.72, 730.03 361.97, 730.11 365.06 C730.19 368.14, 730.19 361.97, 730.11 365.06" stroke="#ffffff" stroke-width="4" fill="none"></path></g><g stroke-linecap="round" transform="translate(203.70315736146495 124.23519536701792) rotate(0 172.18058432130226 151.9580324714849)"><path d="M216.25 38 C243.59 62.48, 270.93 86.97, 301.11 114 C344.36 152, 344.36 152, 301.11 190 C270.2 217.66, 239.28 245.31, 216.25 265.92 C173 303.92, 173 303.92, 129.75 265.92 C101.72 241.32, 73.7 216.72, 43.25 190 C0 152, 0 152, 43.25 114 C74.24 86.77, 105.24 59.54, 129.75 38 C173 0, 173 0, 216.25 38" stroke="none" stroke-width="0" fill="#1e1e1e"></path><path d="M216.25 38 C249.67 67.93, 283.08 97.85, 301.11 114 M216.25 38 C246.07 64.7, 275.88 91.4, 301.11 114 M301.11 114 C344.36 152, 344.36 152, 301.11 190 M301.11 114 C344.36 152, 344.36 152, 301.11 190 M301.11 190 C276.88 211.68, 252.64 233.36, 216.25 265.92 M301.11 190 C269.31 218.45, 237.51 246.9, 216.25 265.92 M216.25 265.92 C173 303.92, 173 303.92, 129.75 265.92 M216.25 265.92 C173 303.92, 173 303.92, 129.75 265.92 M129.75 265.92 C111.16 249.6, 92.57 233.29, 43.25 190 M129.75 265.92 C104.87 244.08, 80 222.25, 43.25 190 M43.25 190 C0 152, 0 152, 43.25 114 M43.25 190 C0 152, 0 152, 43.25 114 M43.25 114 C66.92 93.2, 90.59 72.41, 129.75 38 M43.25 114 C64.76 95.1, 86.27 76.2, 129.75 38 M129.75 38 C173 0, 173 0, 216.25 38 M129.75 38 C173 0, 173 0, 216.25 38" stroke="#1e1e1e" stroke-width="4" fill="none"></path></g><g stroke-linecap="round" transform="translate(215.29223515232184 269.7653452862394) rotate(0 161.41929780122086 142.46065544201713)"><path d="M32 0 C134.15 0, 236.3 0, 290.84 0 C312.17 0, 322.84 10.67, 322.84 32 C322.84 105.99, 322.84 179.97, 322.84 252.92 C322.84 274.25, 312.17 284.92, 290.84 284.92 C219.36 284.92, 147.89 284.92, 32 284.92 C10.67 284.92, 0 274.25, 0 252.92 C0 198.39, 0 143.85, 0 32 C0 10.67, 10.67 0, 32 0" stroke="none" stroke-width="0" fill="#1e1e1e"></path><path d="M32 0 C125.07 0, 218.13 0, 290.84 0 M32 0 C130.01 0, 228.02 0, 290.84 0 M290.84 0 C312.17 0, 322.84 10.67, 322.84 32 M290.84 0 C312.17 0, 322.84 10.67, 322.84 32 M322.84 32 C322.84 104.35, 322.84 176.7, 322.84 252.92 M322.84 32 C322.84 91.52, 322.84 151.04, 322.84 252.92 M322.84 252.92 C322.84 274.25, 312.17 284.92, 290.84 284.92 M322.84 252.92 C322.84 274.25, 312.17 284.92, 290.84 284.92 M290.84 284.92 C233.14 284.92, 175.44 284.92, 32 284.92 M290.84 284.92 C188.44 284.92, 86.04 284.92, 32 284.92 M32 284.92 C10.67 284.92, 0 274.25, 0 252.92 M32 284.92 C10.67 284.92, 0 274.25, 0 252.92 M0 252.92 C0 169.35, 0 85.78, 0 32 M0 252.92 C0 203.11, 0 153.31, 0 32 M0 32 C0 10.67, 10.67 0, 32 0 M0 32 C0 10.67, 10.67 0, 32 0" stroke="#1e1e1e" stroke-width="4" fill="none"></path></g><g stroke-linecap="round"><g transform="translate(215.29223515232184 286.48228443901405) rotate(0 161.41929780122086 0)"><path d="M0 0 C53.81 0, 269.03 0, 322.84 0 M0 0 C53.81 0, 269.03 0, 322.84 0" stroke="#ffffff" stroke-width="4" fill="none"></path></g></g><mask></mask></svg>